<svg xmlns="http://www.w3.org/2000/svg" width="1200" height="510" viewBox="0 0 1200 510">
<!-- PHASE5_PREPARATION_ONLY: deterministic non-final preview -->
<rect width="1200" height="510" fill="white"/>
<defs><marker id="arrow" viewBox="0 0 10 10" refX="9" refY="5" markerWidth="7" markerHeight="7" orient="auto-start-reverse"><path d="M 0 0 L 10 5 L 0 10 z" fill="#222"/></marker></defs>
<text x="45" y="58" text-anchor="start" font-family="Noto Serif CJK SC,SimSun,serif" font-size="18">概念性E2E组成</text>
<rect x="45" y="90" width="150" height="78" fill="white" stroke="#222" stroke-width="1.5"/>
<text x="120" y="126" text-anchor="middle" font-family="Noto Serif CJK SC,SimSun,serif" font-size="17">数据源获取</text>
<text x="120" y="149" text-anchor="middle" font-family="Noto Serif CJK SC,SimSun,serif" font-size="17">与解码</text>
<line x1="195" y1="129" x2="220" y2="129" stroke="#222" stroke-width="1.5" marker-end="url(#arrow)"/>
<rect x="230" y="90" width="150" height="78" fill="white" stroke="#222" stroke-width="1.5"/>
<text x="305" y="126" text-anchor="middle" font-family="Noto Serif CJK SC,SimSun,serif" font-size="17">主机暂存</text>
<text x="305" y="149" text-anchor="middle" font-family="Noto Serif CJK SC,SimSun,serif" font-size="17">/输入准备</text>
<line x1="380" y1="129" x2="405" y2="129" stroke="#222" stroke-width="1.5" marker-end="url(#arrow)"/>
<rect x="415" y="90" width="150" height="78" fill="white" stroke="#222" stroke-width="1.5"/>
<text x="490" y="136" text-anchor="middle" font-family="Noto Serif CJK SC,SimSun,serif" font-size="17">预处理</text>
<line x1="565" y1="129" x2="590" y2="129" stroke="#222" stroke-width="1.5" marker-end="url(#arrow)"/>
<rect x="600" y="90" width="150" height="78" fill="white" stroke="#222" stroke-width="1.5"/>
<text x="675" y="136" text-anchor="middle" font-family="Noto Serif CJK SC,SimSun,serif" font-size="17">必要数据移动</text>
<line x1="750" y1="129" x2="775" y2="129" stroke="#222" stroke-width="1.5" marker-end="url(#arrow)"/>
<rect x="785" y="90" width="150" height="78" fill="white" stroke="#222" stroke-width="1.5"/>
<text x="860" y="126" text-anchor="middle" font-family="Noto Serif CJK SC,SimSun,serif" font-size="17">TensorRT INT8</text>
<text x="860" y="149" text-anchor="middle" font-family="Noto Serif CJK SC,SimSun,serif" font-size="17">推理与同步</text>
<line x1="935" y1="129" x2="960" y2="129" stroke="#222" stroke-width="1.5" marker-end="url(#arrow)"/>
<rect x="970" y="90" width="150" height="78" fill="white" stroke="#222" stroke-width="1.5"/>
<text x="1045" y="126" text-anchor="middle" font-family="Noto Serif CJK SC,SimSun,serif" font-size="17">后处理</text>
<text x="1045" y="149" text-anchor="middle" font-family="Noto Serif CJK SC,SimSun,serif" font-size="17">/结果构造</text>
<text x="45" y="230" text-anchor="start" font-family="Noto Serif CJK SC,SimSun,serif" font-size="17">受控比较</text>
<rect x="230" y="202" width="520" height="62" rx="5" fill="none" stroke="#555" stroke-width="2" stroke-dasharray="10 6"/>
<text x="490" y="239" text-anchor="middle" font-family="Noto Serif CJK SC,SimSun,serif" font-size="17">V0→V2R：较宽的结构/配置干预</text>
<rect x="230" y="292" width="150" height="62" rx="5" fill="none" stroke="#555" stroke-width="2" stroke-dasharray="2 6"/>
<text x="398" y="317" text-anchor="start" font-family="Noto Serif CJK SC,SimSun,serif" font-size="17">V2R→V3R：较窄的结构/配置干预</text>
<text x="398" y="342" text-anchor="start" font-family="Noto Serif CJK SC,SimSun,serif" font-size="15">（仅主机原始图像暂存分配类型）</text>
<line x1="45" y1="395" x2="1120" y2="395" stroke="#999" stroke-width="1"/>
<text x="45" y="432" text-anchor="start" font-family="Noto Serif CJK SC,SimSun,serif" font-size="16">边界：较宽/较窄仅描述受控变量覆盖的结构与配置范围，</text>
<text x="45" y="460" text-anchor="start" font-family="Noto Serif CJK SC,SimSun,serif" font-size="16">不表示 Amdahl α 大小，也不预测实际加速比。</text>
</svg>
